# xmcd
#
# Track frame offsets:
#       150
#       10350
#       21675
#       32205
#       41634
#       50475
#       61427
#       74892
#       85321
#
# Disc length: 1277 seconds
#
# Revision: 1
# Processed by: cddbd v1.4PL0 Copyright (c) Steve Scherf et al.
# Submitted via: MusiCat 1.1
#
DISCID=8704fb09
DTITLE=Mel Tillis - The Greats
DYEAR=1900
DGENRE=
TTITLE0=Stateside
TTITLE1=Not In Front Of the Kids
TTITLE2=Wine
TTITLE3=Home Is where The Heart Is
TTITLE4=Above Suspicion
TTITLE5=Buried Alive
TTITLE6=Ode To The Little Brown Shack Out Back
TTITLE7=Guide Me Home My Georgia Moon
TTITLE8=Mr. Dropout
EXTD=\n\n
EXTT0=
EXTT1=
EXTT2=
EXTT3=
EXTT4=
EXTT5=
EXTT6=
EXTT7=
EXTT8=
PLAYORDER=
